<svg id="Camada_1" data-name="Camada 1" xmlns="http://www.w3.org/2000/svg" viewBox="0 0 1183.6 238"><defs><style>.cls-1{fill:#fff;}</style></defs><path class="cls-1" d="M1180.1,138.9a51.89,51.89,0,0,1,3.5,19.8c0,14.6-6,26.6-17.9,36s-26.5,14.1-43.6,14.1q-36.45,0-62-18.9l8.8-11.8a90.12,90.12,0,0,0,53.2,16.7c12.5,0,23.2-3.3,31.9-9.9s13.1-15.3,13.1-26.2c0-7.7-1.9-14-5.6-19a32.69,32.69,0,0,0-14.8-11,142.43,142.43,0,0,0-20.2-5.9c-7.3-1.6-14.6-3.3-22-5.1a105.53,105.53,0,0,1-20.1-7,34.42,34.42,0,0,1-14.8-13.3c-3.7-6-5.6-13.4-5.6-22.1,0-13.1,5.6-24,16.9-32.9s25-13.2,41.1-13.2q30.45,0,55.1,15.3l-8.8,11.6c-13.8-8.7-29.3-13-46.3-13-11.6,0-21.5,3-29.5,9.1s-12,13.8-12,23.1a27.3,27.3,0,0,0,3.5,14.1,25.92,25.92,0,0,0,9.5,9.1,68.67,68.67,0,0,0,13.7,5.5c5.1,1.5,10.6,2.8,16.2,4s11.3,2.5,17,3.8a102.62,102.62,0,0,1,16.2,5.4,55.91,55.91,0,0,1,13.8,8.4A32,32,0,0,1,1180.1,138.9Z"/><path class="cls-1" d="M1030.1,33.4V145.1q0,26.85-20.3,45c-13.5,12.1-30.1,18.1-49.6,18.1s-36.1-6-49.7-18.1-20.4-27-20.4-45V33.4h16.1V145.1c0,14.1,5.2,25.9,15.6,35.2s23.2,13.9,38.3,13.9,27.9-4.7,38.3-13.9,15.6-21,15.6-35.2V33.4Z"/><polygon class="cls-1" points="867 33.4 803 118.9 867 204.7 847.8 204.7 793 130.2 738.3 204.7 719 204.7 783 118.9 719 33.4 738.3 33.4 793 107.5 847.8 33.4 867 33.4"/><polygon class="cls-1" points="702 190.4 702 204.7 575.7 204.7 575.7 33.4 702 33.4 702 47.5 591.8 47.5 591.8 111.8 685.5 111.8 685.5 125.9 591.8 125.9 591.8 190.4 702 190.4"/><polygon class="cls-1" points="539.8 33.1 539.8 211.7 415.9 67.4 415.9 204.7 399.8 204.7 399.8 26.3 523.8 170.7 523.8 33.1 539.8 33.1"/><rect class="cls-1" x="347.9" y="33.4" width="16.1" height="171.2"/><path class="cls-1" d="M224.2,105.7,248,119,124,188.4,0,119l23.8-13.3L124,161.8ZM124,211.4,23.8,155.3,0,168.6,124,238l124-69.4-23.8-13.3ZM124,23l83,46.5L124,116,41,69.4Zm0-23L0,69.4l124,69.4L248,69.4Z"/></svg>